<svg width="69" height="1080" viewBox="0 0 69 1080" fill="none" xmlns="http://www.w3.org/2000/svg">
<path d="M63.877 -726C67.1996 -715.935 69 -705.178 69 -694C69 -658.842 51.212 -627.84 24.1455 -609.5C51.212 -591.16 69 -560.158 69 -525C69 -489.842 51.212 -458.84 24.1455 -440.5C51.212 -422.16 69 -391.158 69 -356C69 -320.842 51.212 -289.84 24.1455 -271.5C51.212 -253.16 69 -222.158 69 -187C69 -151.842 51.212 -120.84 24.1455 -102.5C51.212 -84.1598 69 -53.1576 69 -18C69 17.1576 51.212 48.1598 24.1455 66.5C51.212 84.8402 69 115.842 69 151C69 186.158 51.212 217.16 24.1455 235.5C51.212 253.84 69 284.842 69 320C69 355.158 51.212 386.16 24.1456 404.5C51.212 422.84 69.0001 453.842 69.0001 489C69.0001 524.158 51.212 555.16 24.1456 573.5C51.212 591.84 69.0001 622.842 69.0001 658C69.0001 693.158 51.2121 724.16 24.1456 742.5C51.2121 760.84 69.0001 791.842 69.0001 827C69.0001 862.158 51.2121 893.16 24.1456 911.5C51.2121 929.84 69.0001 960.842 69.0001 996C69.0001 1031.16 51.2121 1062.16 24.1456 1080.5C51.2121 1098.84 69.0001 1129.84 69.0001 1165C69.0001 1175.07 67.5385 1184.81 64.8175 1194L8.39259e-05 1194L0 -726L63.877 -726Z" fill="#FFF113"/>
</svg>
