<svg width="69" height="1080" viewBox="0 0 69 1080" fill="none" xmlns="http://www.w3.org/2000/svg">
<path d="M63.877 1638C67.1996 1627.94 69 1617.18 69 1606C69 1570.84 51.212 1539.84 24.1455 1521.5C51.212 1503.16 69 1472.16 69 1437C69 1401.84 51.212 1370.84 24.1455 1352.5C51.212 1334.16 69 1303.16 69 1268C69 1232.84 51.212 1201.84 24.1455 1183.5C51.212 1165.16 69 1134.16 69 1099C69 1063.84 51.212 1032.84 24.1455 1014.5C51.212 996.16 69 965.158 69 930C69 894.842 51.212 863.84 24.1455 845.5C51.212 827.16 69 796.158 69 761C69 725.842 51.212 694.84 24.1455 676.5C51.212 658.16 69 627.158 69 592C69 556.842 51.212 525.84 24.1456 507.5C51.212 489.16 69.0001 458.158 69.0001 423C69.0001 387.842 51.212 356.84 24.1456 338.5C51.212 320.16 69.0001 289.158 69.0001 254C69.0001 218.842 51.2121 187.84 24.1456 169.5C51.2121 151.16 69.0001 120.158 69.0001 85C69.0001 49.8425 51.2121 18.8403 24.1456 0.500001C51.2121 -17.8403 69.0001 -48.8425 69.0001 -84C69.0001 -119.158 51.2121 -150.16 24.1456 -168.5C51.2121 -186.84 69.0001 -217.842 69.0001 -253C69.0001 -263.075 67.5385 -272.808 64.8175 -282L8.39259e-05 -282L0 1638L63.877 1638Z" fill="#C10706"/>
</svg>
