<svg width="69" height="1080" viewBox="0 0 69 1080" fill="none" xmlns="http://www.w3.org/2000/svg">
<path d="M5.12313 1638C1.80045 1627.94 8.30157e-05 1617.18 8.25271e-05 1606C8.09903e-05 1570.84 17.7881 1539.84 44.8546 1521.5C17.7881 1503.16 7.66767e-05 1472.16 7.51399e-05 1437C7.36031e-05 1401.84 17.7881 1370.84 44.8546 1352.5C17.7881 1334.16 6.92894e-05 1303.16 6.77527e-05 1268C6.62159e-05 1232.84 17.7881 1201.84 44.8546 1183.5C17.7881 1165.16 6.19022e-05 1134.16 6.03654e-05 1099C5.88286e-05 1063.84 17.7881 1032.84 44.8545 1014.5C17.7881 996.16 5.4515e-05 965.158 5.29782e-05 930C5.14414e-05 894.842 17.7881 863.84 44.8545 845.5C17.7881 827.16 4.71278e-05 796.158 4.5591e-05 761C4.40542e-05 725.842 17.7881 694.84 44.8545 676.5C17.7881 658.16 3.97405e-05 627.158 3.82038e-05 592C3.6667e-05 556.842 17.788 525.84 44.8545 507.5C17.788 489.16 3.23533e-05 458.158 3.08165e-05 423C2.92797e-05 387.842 17.788 356.84 44.8545 338.5C17.788 320.16 2.49661e-05 289.158 2.34293e-05 254C2.18925e-05 218.842 17.788 187.84 44.8545 169.5C17.788 151.16 1.75789e-05 120.158 1.60421e-05 85C1.45053e-05 49.8425 17.788 18.8403 44.8545 0.500001C17.788 -17.8403 1.01916e-05 -48.8424 8.65485e-06 -84C7.11807e-06 -119.158 17.788 -150.16 44.8545 -168.5C17.788 -186.84 2.80442e-06 -217.842 1.26763e-06 -253C8.27254e-07 -263.075 1.4616 -272.808 4.18262 -282L69 -282L69.0001 1638L5.12313 1638Z" fill="#C10706"/>
</svg>
