<svg width="69" height="1080" viewBox="0 0 69 1080" fill="none" xmlns="http://www.w3.org/2000/svg">
<path d="M5.12313 -726C1.80045 -715.935 8.30157e-05 -705.178 8.25271e-05 -694C8.09903e-05 -658.842 17.7881 -627.84 44.8546 -609.5C17.7881 -591.16 7.66767e-05 -560.158 7.51399e-05 -525C7.36031e-05 -489.842 17.7881 -458.84 44.8546 -440.5C17.7881 -422.16 6.92894e-05 -391.158 6.77527e-05 -356C6.62159e-05 -320.842 17.7881 -289.84 44.8546 -271.5C17.7881 -253.16 6.19022e-05 -222.158 6.03654e-05 -187C5.88286e-05 -151.842 17.7881 -120.84 44.8545 -102.5C17.7881 -84.1598 5.4515e-05 -53.1576 5.29782e-05 -18C5.14414e-05 17.1576 17.7881 48.1598 44.8545 66.5C17.7881 84.8402 4.71278e-05 115.842 4.5591e-05 151C4.40542e-05 186.158 17.7881 217.16 44.8545 235.5C17.7881 253.84 3.97405e-05 284.842 3.82038e-05 320C3.6667e-05 355.158 17.788 386.16 44.8545 404.5C17.788 422.84 3.23533e-05 453.842 3.08165e-05 489C2.92797e-05 524.158 17.788 555.16 44.8545 573.5C17.788 591.84 2.49661e-05 622.842 2.34293e-05 658C2.18925e-05 693.158 17.788 724.16 44.8545 742.5C17.788 760.84 1.75789e-05 791.842 1.60421e-05 827C1.45053e-05 862.158 17.788 893.16 44.8545 911.5C17.788 929.84 1.01916e-05 960.842 8.65485e-06 996C7.11807e-06 1031.16 17.788 1062.16 44.8545 1080.5C17.788 1098.84 2.80442e-06 1129.84 1.26763e-06 1165C8.27254e-07 1175.07 1.4616 1184.81 4.18262 1194L69 1194L69.0001 -726L5.12313 -726Z" fill="#FFF113"/>
</svg>
