<svg width="1046" height="484" viewBox="0 0 1046 484" fill="none" xmlns="http://www.w3.org/2000/svg">
<path fill-rule="evenodd" clip-rule="evenodd" d="M102.2 0C123.366 0 143.029 6.77188 159.34 18.3694L162.314 20.9514L165.288 18.3694C181.599 6.77188 201.262 0 222.428 0C243.595 0 263.258 6.77188 279.569 18.3694L282.543 20.9514L285.516 18.3694C301.827 6.77188 321.491 0 342.657 0C363.823 0 383.487 6.77188 399.798 18.3694L402.771 20.9514L405.745 18.3694C422.056 6.77188 441.719 0 462.886 0C484.052 0 503.715 6.77188 520.026 18.3694L523 20.9514L525.973 18.3694C542.285 6.77188 561.948 0 583.114 0C604.28 0 623.944 6.77188 640.255 18.3694L643.229 20.9514L646.202 18.3694C662.513 6.77188 682.177 0 703.343 0C724.509 0 744.173 6.77188 760.484 18.3694L763.457 20.9514L766.431 18.3694C782.742 6.77188 802.405 0 823.572 0C844.738 0 864.401 6.77188 880.713 18.3694L883.686 20.9514L886.659 18.3694C902.971 6.77188 922.634 0 943.8 0C1000.24 0 1046 48.1556 1046 107.559C1046 129.835 1039.57 150.529 1028.55 167.696L1022.99 174.779L1028.55 181.863C1039.57 199.029 1046 219.724 1046 242C1046 264.276 1039.57 284.971 1028.55 302.137L1022.99 309.221L1028.55 316.304C1039.57 333.471 1046 354.165 1046 376.441C1046 435.844 1000.24 484 943.8 484C922.634 484 902.971 477.228 886.659 465.631L883.686 463.049L880.713 465.631C864.401 477.228 844.738 484 823.572 484C802.405 484 782.742 477.228 766.431 465.631L763.457 463.049L760.484 465.631C744.173 477.228 724.509 484 703.343 484C682.177 484 662.513 477.228 646.202 465.631L643.229 463.049L640.255 465.631C623.944 477.228 604.28 484 583.114 484C561.948 484 542.285 477.228 525.973 465.631L523 463.049L520.026 465.631C503.715 477.228 484.052 484 462.886 484C441.719 484 422.056 477.228 405.745 465.631L402.771 463.049L399.798 465.631C383.487 477.228 363.823 484 342.657 484C321.491 484 301.827 477.228 285.516 465.631L282.543 463.049L279.569 465.631C263.258 477.228 243.595 484 222.428 484C201.262 484 181.599 477.228 165.288 465.631L162.314 463.049L159.34 465.631C143.029 477.228 123.366 484 102.2 484C45.7562 484 0 435.844 0 376.441C0 354.165 6.4345 333.471 17.454 316.304L23.0074 309.221L17.454 302.137C6.4345 284.971 0 264.276 0 242C0 219.724 6.4345 199.029 17.454 181.863L23.0074 174.779L17.454 167.696C6.4345 150.529 0 129.835 0 107.559C0 48.1556 45.7562 0 102.2 0Z" fill="white"/>
</svg>
