<svg width="660" height="228" viewBox="0 0 660 228" fill="none" xmlns="http://www.w3.org/2000/svg">
<path fill-rule="evenodd" clip-rule="evenodd" d="M64.4855 0C77.8408 0 90.248 3.19006 100.54 8.65338L102.416 9.86967L104.292 8.65338C114.584 3.19006 126.991 0 140.347 0C153.702 0 166.109 3.19006 176.401 8.65338L178.277 9.86967L180.154 8.65338C190.446 3.19006 202.853 0 216.208 0C229.563 0 241.97 3.19006 252.262 8.65338L254.139 9.86967L256.015 8.65338C266.307 3.19006 278.714 0 292.069 0C305.425 0 317.832 3.19006 328.124 8.65338L330 9.86967L331.876 8.65338C342.168 3.19006 354.575 0 367.931 0C381.286 0 393.693 3.19006 403.985 8.65338L405.861 9.86967L407.737 8.65338C418.029 3.19006 430.436 0 443.792 0C457.147 0 469.554 3.19006 479.846 8.65338L481.723 9.86967L483.599 8.65338C493.891 3.19006 506.298 0 519.653 0C533.009 0 545.416 3.19006 555.708 8.65338L557.584 9.86967L559.46 8.65338C569.752 3.19006 582.159 0 595.515 0C631.129 0 660 22.6849 660 50.6681C660 61.1618 655.94 70.9104 648.987 78.9972L645.483 82.3341L648.987 85.6709C655.94 93.7576 660 103.506 660 114C660 124.494 655.94 134.242 648.987 142.329L645.483 145.666L648.987 149.003C655.94 157.09 660 166.838 660 177.332C660 205.315 631.129 228 595.515 228C582.159 228 569.752 224.81 559.46 219.347L557.584 218.13L555.708 219.347C545.416 224.81 533.009 228 519.653 228C506.298 228 493.891 224.81 483.599 219.347L481.723 218.13L479.846 219.347C469.554 224.81 457.147 228 443.792 228C430.436 228 418.029 224.81 407.737 219.347L405.861 218.13L403.985 219.347C393.693 224.81 381.286 228 367.931 228C354.575 228 342.168 224.81 331.876 219.347L330 218.13L328.124 219.347C317.832 224.81 305.425 228 292.069 228C278.714 228 266.307 224.81 256.015 219.347L254.139 218.13L252.262 219.347C241.97 224.81 229.563 228 216.208 228C202.853 228 190.446 224.81 180.154 219.347L178.277 218.13L176.401 219.347C166.109 224.81 153.702 228 140.347 228C126.991 228 114.584 224.81 104.292 219.347L102.416 218.13L100.54 219.347C90.248 224.81 77.8408 228 64.4855 228C28.871 228 0 205.315 0 177.332C0 166.838 4.06001 157.09 11.0131 149.003L14.5171 145.666L11.0131 142.329C4.06001 134.242 0 124.494 0 114C0 103.506 4.06001 93.7576 11.0131 85.6709L14.5171 82.3341L11.0131 78.9972C4.06001 70.9104 0 61.1618 0 50.6681C0 22.6849 28.871 0 64.4855 0Z" fill="#8B0908"/>
</svg>
